<svg width="32" height="32" viewBox="0 0 32 32" fill="none" xmlns="http://www.w3.org/2000/svg">
  <rect width="32" height="32" rx="6" fill="url(#gradient)"/>
  <path d="M8 12C8 10.5 8.5 9 9.5 8C10.5 7 12 6.5 13.5 6.5C15 6.5 16.5 7 17.5 8C18.5 9 19 10.5 19 12C19 13.5 18.5 15 17.5 16C16.5 17 15 17.5 13.5 17.5C12 17.5 10.5 17 9.5 16C8.5 15 8 13.5 8 12Z" fill="white"/>
  <path d="M13 20C13.5 20.5 14 21 14.5 21.5C15 22 15.5 22.5 16 23C16.5 23.5 17 24 17.5 24.5C18 25 18.5 25.5 19 26C19.5 26.5 20 27 20.5 27.5C21 28 21.5 28.5 22 29C22.5 29.5 23 30 23.5 30.5C24 31 24.5 31.5 25 32" stroke="white" stroke-width="1" stroke-linecap="round"/>
  <circle cx="12" cy="11" r="1" fill="url(#gradient)"/>
  <circle cx="15" cy="11" r="1" fill="url(#gradient)"/>
  <path d="M12 14C12.5 14.5 13.5 15 15 15C16.5 15 17.5 14.5 18 14" stroke="url(#gradient)" stroke-width="1" stroke-linecap="round"/>
  <text x="16" y="28" font-family="Arial, sans-serif" font-size="4" font-weight="bold" fill="white" text-anchor="middle">IA</text>
  <defs>
    <linearGradient id="gradient" x1="0" y1="0" x2="32" y2="32" gradientUnits="userSpaceOnUse">
      <stop stop-color="#8B5CF6"/>
      <stop offset="1" stop-color="#3B82F6"/>
    </linearGradient>
  </defs>
</svg>
